<svg id="visual" viewBox="0 0 1600 800" width="1600" height="800" xmlns="http://www.w3.org/2000/svg" xmlns:xlink="http://www.w3.org/1999/xlink" version="1.1"><rect x="0" y="0" width="1600" height="800" fill="#fff1f2"></rect><defs><linearGradient id="grad1_0" x1="50%" y1="0%" x2="100%" y2="100%"><stop offset="10%" stop-color="#fff1f2" stop-opacity="1"></stop><stop offset="90%" stop-color="#fff1f2" stop-opacity="1"></stop></linearGradient></defs><defs><linearGradient id="grad2_0" x1="0%" y1="0%" x2="50%" y2="100%"><stop offset="10%" stop-color="#fff1f2" stop-opacity="1"></stop><stop offset="90%" stop-color="#fff1f2" stop-opacity="1"></stop></linearGradient></defs><g transform="translate(1600, 0)"><path d="M0 120C-7 116.1 -14 112.2 -18.6 105.4C-23.2 98.6 -25.4 88.9 -32.8 90.2C-40.3 91.5 -52.9 103.7 -60 103.9C-67.1 104.2 -68.8 92.5 -70.1 83.5C-71.3 74.5 -72.2 68 -75.8 63.6C-79.5 59.3 -86 57 -90.9 52.5C-95.9 48 -99.2 41.3 -94 34.2C-88.7 27.1 -74.9 19.5 -77.8 13.7C-80.7 7.9 -100.4 4 -120 0L0 0Z" fill="#e11d48"></path></g><g transform="translate(0, 800)"><path d="M0 -120C8.2 -123.3 16.4 -126.5 20.8 -118.2C25.3 -109.8 26.1 -89.9 30.8 -84.6C35.5 -79.3 44.1 -88.7 54 -93.5C63.9 -98.4 75 -98.7 74.6 -88.9C74.1 -79 62 -58.9 59 -49.5C55.9 -40.1 61.9 -41.4 71.9 -41.5C81.9 -41.6 96 -40.3 97.7 -35.6C99.5 -30.8 88.9 -22.5 90.6 -16C92.3 -9.5 106.1 -4.7 120 0L0 0Z" fill="#e11d48"></path></g></svg>